<svg xmlns="http://www.w3.org/2000/svg" width="24" height="24" fill="none"><g filter="url(#a)"><path fill="url(#b)" d="M2.439 16.242c-1.462-.844-1.462-2.211 0-3.055l6.927-3.999c1.461-.843 3.83-.843 5.291 0l6.928 4c1.461.843 1.461 2.21 0 3.054l-6.928 4c-1.46.843-3.83.843-5.29 0l-6.928-4z"/><path stroke="#fff" stroke-opacity=".1" stroke-width=".489" d="m2.56 13.399 6.928-4c.685-.395 1.598-.6 2.524-.6.926 0 1.838.205 2.523.6l6.928 4c.686.396.973.881.973 1.316 0 .434-.287.92-.973 1.315l-6.928 4c-.685.395-1.597.6-2.523.6-.926 0-1.839-.205-2.524-.6l-6.927-4c-.686-.396-.974-.88-.974-1.315 0-.435.288-.92.974-1.316z"/></g><g filter="url(#c)"><path fill="#8F37FF" fill-opacity=".09" d="M2.436 10.742c-1.46-.842-1.46-2.209 0-3.052L9.37 3.688c1.46-.842 3.826-.842 5.286 0l6.932 4.002c1.46.843 1.46 2.21 0 3.052l-6.932 4.002c-1.46.843-3.827.843-5.286 0l-6.933-4.002z"/><path fill="url(#d)" d="M2.436 10.742c-1.46-.842-1.46-2.209 0-3.052L9.37 3.688c1.46-.842 3.826-.842 5.286 0l6.932 4.002c1.46.843 1.46 2.21 0 3.052l-6.932 4.002c-1.46.843-3.827.843-5.286 0l-6.933-4.002z"/></g><g filter="url(#e)"><path fill="url(#f)" fill-opacity=".5" fill-rule="evenodd" d="M9.765 3.918 2.833 7.92c-1.24.716-1.24 1.877 0 2.593l6.932 4.002c1.241.716 3.252.716 4.493 0l6.932-4.002c1.241-.716 1.241-1.877 0-2.593l-6.932-4.002c-1.24-.717-3.252-.717-4.493 0zM2.436 7.69c-1.46.843-1.46 2.21 0 3.052l6.933 4.002c1.46.843 3.826.843 5.286 0l6.932-4.002c1.46-.842 1.46-2.209 0-3.052l-6.932-4.002c-1.46-.842-3.827-.842-5.286 0L2.436 7.69z" clip-rule="evenodd"/></g><g filter="url(#g)"><path fill="url(#h)" fill-rule="evenodd" d="m4.562 11.977-2.117 1.221c-1.46.844-1.46 2.211 0 3.055l6.928 4c1.461.843 3.83.843 5.291 0l6.928-4c1.46-.844 1.46-2.211 0-3.055l-2.117-1.221-4.811 2.777c-1.461.843-3.83.843-5.291 0l-4.811-2.777z" clip-rule="evenodd"/></g><defs><linearGradient id="b" x1="3.134" x2="22.681" y1="15.077" y2="15.077" gradientUnits="userSpaceOnUse"><stop stop-color="#E964FF"/><stop offset="1" stop-color="#8F37FF"/></linearGradient><linearGradient id="d" x1="2.613" x2="18.2" y1="7.589" y2="17.466" gradientUnits="userSpaceOnUse"><stop stop-color="#F6EFFF" stop-opacity=".5"/><stop offset="1" stop-color="#fff" stop-opacity="0"/></linearGradient><linearGradient id="f" x1="3.553" x2="17.742" y1="7.86" y2="15.748" gradientUnits="userSpaceOnUse"><stop stop-color="#fff" stop-opacity=".32"/><stop offset="1" stop-color="#8324FF" stop-opacity="0"/></linearGradient><linearGradient id="h" x1="11.077" x2="11.36" y1="12.867" y2="20.88" gradientUnits="userSpaceOnUse"><stop stop-color="#4E109E" stop-opacity=".08"/><stop offset="1" stop-color="#fff" stop-opacity="0"/></linearGradient><filter id="a" width="28.18" height="19.161" x="-2.079" y="5.134" color-interpolation-filters="sRGB" filterUnits="userSpaceOnUse"><feFlood flood-opacity="0" result="BackgroundImageFix"/><feGaussianBlur in="BackgroundImageFix" stdDeviation="1.711"/><feComposite in2="SourceAlpha" operator="in" result="effect1_backgroundBlur_87_2007"/><feBlend in="SourceGraphic" in2="effect1_backgroundBlur_87_2007" result="shape"/></filter><filter id="c" width="26.228" height="17.207" x="-1.102" y=".613" color-interpolation-filters="sRGB" filterUnits="userSpaceOnUse"><feFlood flood-opacity="0" result="BackgroundImageFix"/><feGaussianBlur in="BackgroundImageFix" stdDeviation="1.222"/><feComposite in2="SourceAlpha" operator="in" result="effect1_backgroundBlur_87_2007"/><feBlend in="SourceGraphic" in2="effect1_backgroundBlur_87_2007" result="shape"/></filter><filter id="e" width="26.228" height="17.207" x="-1.102" y=".613" color-interpolation-filters="sRGB" filterUnits="userSpaceOnUse"><feFlood flood-opacity="0" result="BackgroundImageFix"/><feGaussianBlur in="BackgroundImageFix" stdDeviation="1.222"/><feComposite in2="SourceAlpha" operator="in" result="effect1_backgroundBlur_87_2007"/><feBlend in="SourceGraphic" in2="effect1_backgroundBlur_87_2007" result="shape"/></filter><filter id="g" width="21.338" height="10.98" x="1.349" y="11.977" color-interpolation-filters="sRGB" filterUnits="userSpaceOnUse"><feFlood flood-opacity="0" result="BackgroundImageFix"/><feBlend in="SourceGraphic" in2="BackgroundImageFix" result="shape"/><feColorMatrix in="SourceAlpha" result="hardAlpha" values="0 0 0 0 0 0 0 0 0 0 0 0 0 0 0 0 0 0 127 0"/><feOffset dy="2.072"/><feGaussianBlur stdDeviation="2.719"/><feComposite in2="hardAlpha" k2="-1" k3="1" operator="arithmetic"/><feColorMatrix values="0 0 0 0 0 0 0 0 0 0 0 0 0 0 0 0 0 0 0.2 0"/><feBlend in2="shape" mode="darken" result="effect1_innerShadow_87_2007"/></filter></defs></svg>