<svg xmlns="http://www.w3.org/2000/svg" width="25" height="25" fill="none"><path fill="url(#a)" d="M14.77 0H3.524C1.578 0 0 1.6 0 3.572v11.4c0 1.973 1.578 3.572 3.524 3.572H14.77c1.947 0 3.525-1.599 3.525-3.572v-11.4C18.295 1.6 16.717 0 14.77 0z"/><g filter="url(#b)"><path fill="url(#c)" d="M20.476 5.456H9.23c-1.947 0-3.525 1.6-3.525 3.572v11.4C5.705 22.4 7.283 24 9.23 24h11.246C22.422 24 24 22.4 24 20.428v-11.4c0-1.973-1.578-3.572-3.524-3.572z"/><path stroke="url(#d)" stroke-width=".6" d="M20.476 5.156H9.23c-2.116 0-3.825 1.737-3.825 3.872v11.4c0 2.135 1.709 3.872 3.825 3.872h11.246c2.116 0 3.824-1.737 3.824-3.872v-11.4c0-2.135-1.708-3.872-3.824-3.872z"/></g><defs><linearGradient id="a" x1="1.536" x2="18.295" y1="9.818" y2="9.818" gradientUnits="userSpaceOnUse"><stop stop-color="#E964FF"/><stop offset="1" stop-color="#8F37FF"/></linearGradient><linearGradient id="c" x1="6.738" x2="23.187" y1="22.953" y2="6.726" gradientUnits="userSpaceOnUse"><stop stop-color="#fff" stop-opacity=".2"/><stop offset="1" stop-color="#fff" stop-opacity=".49"/></linearGradient><linearGradient id="d" x1="6.997" x2="22.511" y1="6.914" y2="23.279" gradientUnits="userSpaceOnUse"><stop stop-color="#fff"/><stop offset="1" stop-color="#fff" stop-opacity="0"/></linearGradient><filter id="b" width="31.495" height="31.744" x="-.895" y="-1.144" color-interpolation-filters="sRGB" filterUnits="userSpaceOnUse"><feFlood flood-opacity="0" result="BackgroundImageFix"/><feGaussianBlur in="BackgroundImageFix" stdDeviation="3"/><feComposite in2="SourceAlpha" operator="in" result="effect1_backgroundBlur_87_2005"/><feBlend in="SourceGraphic" in2="effect1_backgroundBlur_87_2005" result="shape"/></filter></defs></svg>