<svg xmlns="http://www.w3.org/2000/svg" width="24" height="24" fill="none"><path fill="#fff" fill-rule="evenodd" d="M19.778 22H4.222A2.222 2.222 0 0 1 2 19.778V4.222C2 2.995 2.995 2 4.222 2h15.556C21.005 2 22 2.995 22 4.222v15.556A2.222 2.222 0 0 1 19.778 22zm-3.655-3H19v-5.91c0-2.5-1.417-3.708-3.397-3.708-1.98 0-2.814 1.542-2.814 1.542V9.667h-2.772V19h2.772v-4.9c0-1.312.604-2.093 1.76-2.093 1.064 0 1.574.75 1.574 2.094V19zM5 6.722c0 .951.765 1.723 1.71 1.723.944 0 1.708-.772 1.708-1.723C8.418 5.772 7.654 5 6.71 5 5.765 5 5 5.771 5 6.722zM8.169 19H5.278V9.667h2.89V19z" clip-rule="evenodd"/></svg>