<svg width="24" height="24" fill="none" xmlns="http://www.w3.org/2000/svg" id="svg579775552_1148"><path d="M14.038 20.528v-2.113h3.17c.299 0 .55-.101.753-.304.203-.203.304-.454.303-.753v-2.113c0-.669.194-1.276.581-1.822a3.145 3.145 0 0 1 1.532-1.163v-.37a3.146 3.146 0 0 1-1.532-1.162 3.077 3.077 0 0 1-.58-1.822V6.792c0-.299-.102-.55-.305-.752a1.028 1.028 0 0 0-.752-.304h-3.17V3.623h3.17c.88 0 1.629.308 2.245.924.616.617.924 1.365.924 2.245v2.114c0 .299.102.55.305.753.203.203.453.304.752.303h1.057v4.227h-1.057c-.3 0-.55.101-.752.304a1.027 1.027 0 0 0-.305.752v2.114c0 .88-.308 1.628-.924 2.245a3.057 3.057 0 0 1-2.245.924h-3.17Zm-7.396 0c-.881 0-1.63-.308-2.246-.924a3.057 3.057 0 0 1-.924-2.245v-2.114c0-.3-.102-.55-.305-.752a1.027 1.027 0 0 0-.752-.304H1.36V9.962h1.056c.3 0 .55-.101.753-.304.203-.203.304-.454.304-.752V6.792c0-.88.308-1.628.924-2.245a3.057 3.057 0 0 1 2.246-.924h3.17v2.113h-3.17c-.3 0-.55.101-.753.304a1.027 1.027 0 0 0-.304.752v2.114c0 .669-.194 1.276-.581 1.822a3.146 3.146 0 0 1-1.532 1.163v.37a3.145 3.145 0 0 1 1.532 1.162c.387.546.58 1.153.58 1.822v2.114c0 .299.102.55.305.753.203.203.454.304.753.303h3.17v2.113h-3.17Z" fill="#fff"/></svg>