<svg xmlns="http://www.w3.org/2000/svg" width="24" height="25" fill="none"><path fill="url(#a)" d="M8.848.972c.89 0 1.61.724 1.61 1.617v6.392h-3.22V2.59c0-.893.721-1.617 1.61-1.617z"/><path fill="url(#b)" d="M15.287.972c.889 0 1.609.724 1.609 1.617v6.392h-3.22V2.59c0-.893.721-1.617 1.61-1.617z"/><path fill="url(#c)" d="M.034 16.143c0-.893.72-1.617 1.61-1.617h6.361v3.235H1.644c-.89 0-1.61-.724-1.61-1.617z"/><path fill="url(#d)" d="M.034 9.675c0-.894.72-1.618 1.61-1.618h6.361v3.235H1.644c-.89 0-1.61-.724-1.61-1.617z"/><path fill="url(#e)" d="M15.134 25c-.89 0-1.61-.724-1.61-1.617V16.99h3.22v6.392c0 .893-.721 1.617-1.61 1.617z"/><path fill="url(#f)" d="M8.695 25c-.889 0-1.61-.724-1.61-1.617V16.99h3.22v6.392c0 .893-.72 1.617-1.61 1.617z"/><path fill="url(#g)" d="M23.948 9.829c0 .893-.72 1.617-1.61 1.617h-6.362V8.211h6.362c.89 0 1.61.724 1.61 1.618z"/><path fill="url(#h)" d="M23.948 16.297c0 .894-.72 1.618-1.61 1.618h-6.362V14.68h6.362c.89 0 1.61.724 1.61 1.617z"/><g filter="url(#i)"><path fill="url(#j)" d="M17.586 4.977H6.396A2.382 2.382 0 0 0 4.02 7.364v11.244a2.382 2.382 0 0 0 2.376 2.388h11.19a2.382 2.382 0 0 0 2.376-2.388V7.364a2.382 2.382 0 0 0-2.376-2.387z"/><path stroke="url(#k)" stroke-width=".431" d="M6.396 5.192h11.19c1.192 0 2.16.972 2.16 2.172v11.244c0 1.2-.968 2.172-2.16 2.172H6.396a2.166 2.166 0 0 1-2.161-2.172V7.364c0-1.2.968-2.172 2.16-2.172z"/></g><path fill="#fff" d="M15.976 8.981H8.005v8.01h7.971V8.98z"/><defs><linearGradient id="a" x1="7.509" x2="10.458" y1="5.212" y2="5.212" gradientUnits="userSpaceOnUse"><stop stop-color="#E964FF"/><stop offset="1" stop-color="#8F37FF"/></linearGradient><linearGradient id="b" x1="13.947" x2="16.896" y1="5.212" y2="5.212" gradientUnits="userSpaceOnUse"><stop stop-color="#E964FF"/><stop offset="1" stop-color="#8F37FF"/></linearGradient><linearGradient id="c" x1="4.254" x2="4.254" y1="17.489" y2="14.526" gradientUnits="userSpaceOnUse"><stop stop-color="#E964FF"/><stop offset="1" stop-color="#8F37FF"/></linearGradient><linearGradient id="d" x1="4.254" x2="4.254" y1="11.021" y2="8.057" gradientUnits="userSpaceOnUse"><stop stop-color="#E964FF"/><stop offset="1" stop-color="#8F37FF"/></linearGradient><linearGradient id="e" x1="16.473" x2="13.524" y1="20.76" y2="20.76" gradientUnits="userSpaceOnUse"><stop stop-color="#E964FF"/><stop offset="1" stop-color="#8F37FF"/></linearGradient><linearGradient id="f" x1="10.035" x2="7.086" y1="20.76" y2="20.76" gradientUnits="userSpaceOnUse"><stop stop-color="#E964FF"/><stop offset="1" stop-color="#8F37FF"/></linearGradient><linearGradient id="g" x1="19.728" x2="19.728" y1="8.483" y2="11.446" gradientUnits="userSpaceOnUse"><stop stop-color="#E964FF"/><stop offset="1" stop-color="#8F37FF"/></linearGradient><linearGradient id="h" x1="19.728" x2="19.728" y1="14.952" y2="17.915" gradientUnits="userSpaceOnUse"><stop stop-color="#E964FF"/><stop offset="1" stop-color="#8F37FF"/></linearGradient><linearGradient id="j" x1="4.92" x2="19.129" y1="20.091" y2="5.949" gradientUnits="userSpaceOnUse"><stop stop-color="#fff" stop-opacity=".2"/><stop offset="1" stop-color="#fff" stop-opacity=".49"/></linearGradient><linearGradient id="k" x1="5.145" x2="18.539" y1="6.237" y2="20.49" gradientUnits="userSpaceOnUse"><stop stop-color="#fff"/><stop offset="1" stop-color="#fff" stop-opacity="0"/></linearGradient><filter id="i" width="23.696" height="23.773" x=".143" y="1.1" color-interpolation-filters="sRGB" filterUnits="userSpaceOnUse"><feFlood flood-opacity="0" result="BackgroundImageFix"/><feGaussianBlur in="BackgroundImageFix" stdDeviation="1.938"/><feComposite in2="SourceAlpha" operator="in" result="effect1_backgroundBlur_87_2006"/><feBlend in="SourceGraphic" in2="effect1_backgroundBlur_87_2006" result="shape"/></filter></defs></svg>